<?xml version="1.0" encoding="utf-8"?><svg xmlns="http://www.w3.org/2000/svg" xmlns:xlink="http://www.w3.org/1999/xlink"><symbol viewBox="0 0 344.96 344.96" id="check" xmlns="http://www.w3.org/2000/svg"><g data-name="Слой 2"><path d="M321.85 86.24l-40-23.11-23.1-40H212.5L172.48 0l-40 23.11H86.24l-23.11 40-40 23.1v46.21L0 172.48l23.11 40v46.21l40 23.11 23.11 40h46.21l40 23.1 40-23.11h46.21l23.11-40 40-23.11V212.5l23.11-40-23.11-40V86.24zM156.91 243.07a16.79 16.79 0 01-23.34 0l-50.45-50.44a16.19 16.19 0 010-22.89l13.35-13.35a16.19 16.19 0 0122.89 0l25.87 25.87 80.34-80.35a16.19 16.19 0 0122.89 0l13.35 13.35a16.19 16.19 0 010 22.89z" data-name="Capa 1"/></g></symbol><symbol viewBox="0 0 8 14" id="chevron-right" xmlns="http://www.w3.org/2000/svg"><defs><path id="ba" d="M1469.35 450.985l-1.34-1.37 5.493-5.617-5.494-5.618 1.342-1.372 6.636 6.788-.196.201.196.201z"/></defs><use xlink:href="#ba" transform="translate(-1468 -437)"/></symbol><symbol class="csvg-inline--fa cfa-ellipsis-h cfa-w-16" viewBox="0 0 512 512" id="ellipsis-h-solid" xmlns="http://www.w3.org/2000/svg"><path d="M328 256c0 39.8-32.2 72-72 72s-72-32.2-72-72 32.2-72 72-72 72 32.2 72 72zm104-72c-39.8 0-72 32.2-72 72s32.2 72 72 72 72-32.2 72-72-32.2-72-72-72zm-352 0c-39.8 0-72 32.2-72 72s32.2 72 72 72 72-32.2 72-72-32.2-72-72-72z"/></symbol><symbol viewBox="0 0 14 12" id="horizontal" xmlns="http://www.w3.org/2000/svg"><path fill-rule="evenodd" clip-rule="evenodd" d="M1 .975h12v2H1v-2zm0 4.359h11v2H1v-2zm0 4.363h10v2H1v-2z"/></symbol><symbol viewBox="0 0 15 15" id="menu-0" xmlns="http://www.w3.org/2000/svg"><path fill-rule="evenodd" clip-rule="evenodd" d="M6 1H1v7h5V1zM0 0v9h7V0H0zm14 7H9v7h5V7zM8 6v9h7V6H8zm6-5H9v3h5V1zM8 0v5h7V0H8zM6 11H1v3h5v-3zm-6-1v5h7v-5H0z"/></symbol><symbol viewBox="0 0 8 15" id="menu-1" xmlns="http://www.w3.org/2000/svg"><path d="M6.055 10.253c0-.449-.158-.827-.476-1.135-.312-.307-.842-.586-1.589-.835-1.04-.317-1.8-.73-2.278-1.238-.473-.512-.71-1.162-.71-1.948 0-.8.232-1.457.696-1.97.468-.513 1.11-.818 1.926-.916V.607h1.091V2.22c.82.112 1.458.456 1.912 1.032.459.577.688 1.365.688 2.366H5.968c0-.688-.164-1.235-.491-1.64-.327-.406-.77-.608-1.326-.608-.58 0-1.025.151-1.333.454-.308.298-.461.715-.461 1.252 0 .498.16.896.483 1.194.327.293.862.562 1.604.806.747.239 1.328.505 1.743.798.42.288.728.625.923 1.01.2.387.3.838.3 1.356 0 .825-.249 1.489-.747 1.992-.493.503-1.186.8-2.08.893v1.4H3.5v-1.4c-.908-.083-1.62-.405-2.138-.966-.513-.567-.77-1.333-.77-2.3h1.356c0 .679.178 1.201.534 1.567.357.366.862.55 1.516.55.64 0 1.143-.154 1.51-.462.365-.307.548-.727.548-1.26z"/></symbol><symbol viewBox="0 0 12 15" id="menu-2" xmlns="http://www.w3.org/2000/svg"><path fill-rule="evenodd" clip-rule="evenodd" d="M11 14H1V1h7v2.5h3V14zm-.914-11.5L9 1.414V2.5h1.086zM0 0h9l3 3v12H0V0zm10 5H2v1h8V5zM2 7h8v1H2V7zm8 2H2v1h8V9zm-8 2h8v1H2v-1z"/></symbol><symbol viewBox="0 0 15 11" id="menu-3" xmlns="http://www.w3.org/2000/svg"><path fill-rule="evenodd" clip-rule="evenodd" d="M14 1zm-.773 0H1.773L7.5 5.846 13.227 1zM1 1zm0 .656V9.31l4.252-4.056L1 1.656zM1.725 10h11.55L8.98 5.904 7.5 7.156 6.02 5.904 1.725 10zM14 9.31V1.656L9.748 5.254 14 9.31zM0 11V0h15v11H0z"/></symbol><symbol viewBox="0 0 13 15" id="menu-4" xmlns="http://www.w3.org/2000/svg"><path fill-rule="evenodd" clip-rule="evenodd" d="M2 1h10v13H2V1zM1 12V8H0V7h1V3H0V2h1V0h12v15H1v-2H0v-1h1zm7-4a1 1 0 011 1v2H5V9a1 1 0 011-1h2zM4 9a2 2 0 012-2h2a2 2 0 012 2v3H4V9zm5-4a2 2 0 11-4 0 2 2 0 014 0zM7 6a1 1 0 100-2 1 1 0 000 2z"/></symbol><symbol viewBox="0 0 15 18" id="menu-5" xmlns="http://www.w3.org/2000/svg"><path fill-rule="evenodd" clip-rule="evenodd" d="M10 0h2.5v2.5h-1v-.619l-4.466 5.36L6 6.207l-4.646 4.647-.708-.708L6 4.793l.966.966L10.932 1H10V0zM3 14.5H2v2h1v-2zm1 2v-3H1v3H0v1h15v-1h-1v-12h-3v12H9v-7H6v7H4zm3 0h1v-6H7v6zm5 0h1v-11h-1v11z"/></symbol><symbol viewBox="0 0 57 57" id="search" xmlns="http://www.w3.org/2000/svg"><path d="M55.1 51.9L41.6 37.8C45.1 33.6 47 28.4 47 23 47 10.3 36.7 0 24 0S1 10.3 1 23s10.3 23 23 23c4.8 0 9.3-1.4 13.2-4.2L50.8 56c.6.6 1.3.9 2.2.9.8 0 1.5-.3 2.1-.8 1.2-1.1 1.2-3 0-4.2zM24 6c9.4 0 17 7.6 17 17s-7.6 17-17 17S7 32.4 7 23 14.6 6 24 6z"/></symbol><symbol viewBox="0 0 16 15" id="settings" xmlns="http://www.w3.org/2000/svg"><g clip-path="url(#lclip0)"><path d="M14.73 5.926l-1.053-.178a5.95 5.95 0 00-.423-1.022l.62-.868a.924.924 0 00-.1-1.194l-.934-.933a.92.92 0 00-1.19-.1l-.872.62a5.883 5.883 0 00-1.059-.436L9.544.775A.926.926 0 008.629 0h-1.32a.926.926 0 00-.915.774L6.213 1.84c-.351.11-.693.254-1.019.43l-.861-.62a.92.92 0 00-.54-.173.914.914 0 00-.654.272l-.937.934a.928.928 0 00-.1 1.194l.626.88c-.172.33-.31.671-.416 1.025l-1.04.176a.926.926 0 00-.775.915v1.319c0 .454.326.84.774.915l1.066.182c.11.35.253.692.429 1.018l-.617.858a.924.924 0 00.1 1.194l.934.934a.92.92 0 001.19.1l.88-.626c.317.166.65.3.991.407l.176 1.053c.075.448.46.774.915.774h1.322c.454 0 .84-.326.915-.774l.178-1.053a5.93 5.93 0 001.022-.423l.868.62a.92.92 0 00.539.173.92.92 0 00.655-.273l.934-.934a.927.927 0 00.1-1.193l-.62-.871c.172-.33.316-.671.422-1.022l1.053-.175a.926.926 0 00.774-.915V6.84a.914.914 0 00-.768-.915zm-.072 2.235c0 .04-.029.075-.07.081l-1.315.22a.42.42 0 00-.339.31c-.119.46-.3.902-.545 1.313a.424.424 0 00.019.46l.774 1.09a.085.085 0 01-.01.107l-.934.934a.08.08 0 01-.06.025.077.077 0 01-.046-.016l-1.087-.774a.423.423 0 00-.461-.018c-.41.244-.852.426-1.313.545a.416.416 0 00-.31.338l-.223 1.316a.081.081 0 01-.081.07h-1.32a.081.081 0 01-.08-.07l-.22-1.316a.42.42 0 00-.31-.338 5.206 5.206 0 01-1.285-.527.434.434 0 00-.213-.056.412.412 0 00-.245.078l-1.096.78a.093.093 0 01-.047.016.084.084 0 01-.06-.025l-.934-.934a.085.085 0 01-.009-.106l.77-1.081a.43.43 0 00.02-.464 4.968 4.968 0 01-.552-1.31.43.43 0 00-.338-.31l-1.326-.226a.081.081 0 01-.069-.081v-1.32a.08.08 0 01.07-.08l1.306-.22c.166-.028.3-.15.341-.313.116-.461.295-.906.536-1.317a.418.418 0 00-.022-.457l-.78-1.097a.085.085 0 01.01-.106l.933-.934a.08.08 0 01.06-.025c.019 0 .034.006.047.016l1.08.77a.43.43 0 00.465.02 4.94 4.94 0 011.31-.552.43.43 0 00.31-.339L7.234.913a.081.081 0 01.082-.07h1.319c.04 0 .075.03.081.07l.22 1.306c.028.167.15.301.313.342.473.12.925.304 1.344.552a.424.424 0 00.461-.02l1.081-.776a.093.093 0 01.047-.016c.012 0 .038.003.06.025l.933.934a.085.085 0 01.01.106l-.774 1.088a.423.423 0 00-.019.46c.244.41.426.853.545 1.313.04.163.176.285.339.31l1.316.223c.04.006.069.04.069.081v1.32h-.003z"/><path d="M7.999 4.262a3.239 3.239 0 00-3.237 3.236 3.239 3.239 0 003.237 3.237 3.239 3.239 0 003.237-3.237 3.239 3.239 0 00-3.237-3.236zm0 5.627A2.392 2.392 0 015.608 7.5a2.392 2.392 0 014.782-.001A2.392 2.392 0 017.999 9.89z"/></g><defs><clipPath id="lclip0"><path d="M.497 0h15v15h-15z"/></clipPath></defs></symbol><symbol viewBox="0 0 12 14" id="vertical" xmlns="http://www.w3.org/2000/svg"><path fill-rule="evenodd" clip-rule="evenodd" d="M.785 1h2v12h-2V1zm4.363 0h2v11h-2V1zm4.363 0h2v10h-2V1z"/></symbol></svg>