<svg width="15" height="18" viewBox="0 0 15 18" fill="none" xmlns="http://www.w3.org/2000/svg">
<path fill-rule="evenodd" clip-rule="evenodd" d="M10 0H12.5V2.5H11.5V1.88102L7.03364 7.24071L6.00004 6.20711L1.35359 10.8536L0.646484 10.1464L6.00004 4.79289L6.96644 5.75929L10.9325 1H10V0ZM3 14.5H2V16.5H3V14.5ZM4 16.5V14.5V13.5H3H2H1V14.5V16.5H0V17.5H1H2H3H4H6H7H8H9H11H12H13H14H15V16.5H14V5.5V4.5H13H12H11V5.5V16.5H9V10.5V9.5H8H7H6V10.5V16.5H4ZM7 16.5H8V10.5H7V16.5ZM12 16.5H13V5.5H12V16.5Z" fill="white"/>
</svg>
