<svg width="8" height="15" viewBox="0 0 8 15" fill="none" xmlns="http://www.w3.org/2000/svg">
<path d="M6.05542 10.2534C6.05542 9.8042 5.89673 9.42578 5.57935 9.11816C5.26685 8.81055 4.73706 8.53223 3.98999 8.2832C2.94995 7.96582 2.19067 7.55322 1.71216 7.04541C1.23853 6.53271 1.00171 5.8833 1.00171 5.09717C1.00171 4.29639 1.23364 3.63965 1.69751 3.12695C2.16626 2.61426 2.80835 2.30908 3.62378 2.21143V0.607422H4.71509V2.21875C5.5354 2.33105 6.17261 2.67529 6.62671 3.25146C7.08569 3.82764 7.31519 4.61621 7.31519 5.61719H5.96753C5.96753 4.92871 5.80396 4.38184 5.47681 3.97656C5.14966 3.57129 4.70776 3.36865 4.15112 3.36865C3.57007 3.36865 3.12573 3.52002 2.81812 3.82275C2.5105 4.12061 2.35669 4.53809 2.35669 5.0752C2.35669 5.57324 2.51782 5.97119 2.84009 6.26904C3.16724 6.56201 3.7019 6.83057 4.44409 7.07471C5.19116 7.31396 5.77222 7.58008 6.18726 7.87305C6.60718 8.16113 6.91479 8.49805 7.11011 8.88379C7.3103 9.26953 7.4104 9.72119 7.4104 10.2388C7.4104 11.064 7.16138 11.728 6.66333 12.231C6.17017 12.7339 5.47681 13.0317 4.58325 13.1245V14.5234H3.49927V13.1245C2.59106 13.0415 1.87817 12.7192 1.3606 12.1577C0.8479 11.5913 0.591553 10.8247 0.591553 9.85791H1.94653C1.94653 10.5366 2.12476 11.0591 2.4812 11.4253C2.83765 11.7915 3.34302 11.9746 3.99731 11.9746C4.63696 11.9746 5.13989 11.8208 5.5061 11.5132C5.87231 11.2056 6.05542 10.7856 6.05542 10.2534Z" fill="#5D83BC"/>
</svg>
