<svg width="13" height="15" viewBox="0 0 13 15" fill="none" xmlns="http://www.w3.org/2000/svg">
<path fill-rule="evenodd" clip-rule="evenodd" d="M2 1H12V14H2V13V12V8V7V3V2V1ZM1 12V8H0V7H1V3H0V2H1V0H13V15H1V13H0V12H1ZM8 8C8.55228 8 9 8.44771 9 9V11H5V9C5 8.44772 5.44772 8 6 8H8ZM4 9C4 7.89543 4.89543 7 6 7H7H8C9.10457 7 10 7.89543 10 9V12H4V9ZM9 5C9 6.10457 8.10457 7 7 7C5.89543 7 5 6.10457 5 5C5 3.89543 5.89543 3 7 3C8.10457 3 9 3.89543 9 5ZM7 6C7.55228 6 8 5.55228 8 5C8 4.44772 7.55228 4 7 4C6.44772 4 6 4.44772 6 5C6 5.55228 6.44772 6 7 6Z" fill="white"/>
</svg>
