<svg width="16" height="15" viewBox="0 0 16 15" fill="none" xmlns="http://www.w3.org/2000/svg">
<g clip-path="url(#clip0)">
<path d="M14.7295 5.92636L13.6767 5.74775C13.567 5.39367 13.426 5.05212 13.2537 4.72624L13.8741 3.85827C14.1373 3.48852 14.0966 2.98404 13.7738 2.66442L12.84 1.73065C12.6646 1.55518 12.4327 1.45804 12.1851 1.45804C11.9909 1.45804 11.806 1.51757 11.6493 1.63038L10.7782 2.25081C10.4398 2.0722 10.0857 1.92492 9.71911 1.81525L9.54363 0.774943C9.46843 0.326857 9.08301 0.000976562 8.62866 0.000976562H7.30947C6.85512 0.000976562 6.4697 0.326857 6.3945 0.774943L6.21276 1.84032C5.86181 1.94999 5.52026 2.09413 5.19438 2.26961L4.33268 1.64918C4.176 1.53638 3.988 1.47684 3.79372 1.47684C3.54618 1.47684 3.31117 1.57398 3.13883 1.74945L2.20192 2.68322C1.88231 3.00284 1.83844 3.50733 2.10165 3.87707L2.72834 4.75758C2.556 5.08659 2.41813 5.42814 2.31159 5.78222L1.27128 5.9577C0.823195 6.0329 0.497314 6.41832 0.497314 6.87267V8.19186C0.497314 8.64621 0.823195 9.03163 1.27128 9.10683L2.33666 9.28857C2.44633 9.63952 2.59047 9.98107 2.76594 10.3069L2.14865 11.1655C1.88544 11.5353 1.92618 12.0398 2.24892 12.3594L3.1827 13.2931C3.35817 13.4686 3.59005 13.5658 3.83759 13.5658C4.03186 13.5658 4.21674 13.5062 4.37341 13.3934L5.25392 12.7667C5.5704 12.9328 5.90254 13.0675 6.24409 13.1741L6.41957 14.2269C6.49477 14.675 6.88019 15.0009 7.33454 15.0009H8.65686C9.11121 15.0009 9.49663 14.675 9.57183 14.2269L9.75044 13.1741C10.1045 13.0644 10.4461 12.9234 10.772 12.7511L11.6399 13.3715C11.7966 13.4843 11.9846 13.5438 12.1789 13.5438C12.4264 13.5438 12.6583 13.4467 12.8338 13.2712L13.7675 12.3374C14.0872 12.0178 14.131 11.5133 13.8678 11.1436L13.2474 10.2725C13.4197 9.94347 13.5639 9.60192 13.6704 9.25097L14.7233 9.0755C15.1713 9.00029 15.4972 8.61488 15.4972 8.16052V6.84133C15.5035 6.38698 15.1776 6.00156 14.7295 5.92636ZM14.6575 8.16052C14.6575 8.20126 14.6293 8.23573 14.5885 8.24199L13.2725 8.46134C13.1064 8.48954 12.9748 8.61174 12.934 8.77155C12.815 9.23217 12.6332 9.67399 12.3888 10.0845C12.3042 10.2286 12.3105 10.4072 12.4076 10.5451L13.1816 11.6355C13.2035 11.6669 13.2004 11.7139 13.1722 11.7421L12.2384 12.6758C12.2165 12.6978 12.1945 12.7009 12.1789 12.7009C12.1601 12.7009 12.1444 12.6946 12.1319 12.6852L11.0446 11.9113C10.9098 11.8141 10.7281 11.8079 10.5839 11.8925C10.1735 12.1369 9.73164 12.3186 9.27102 12.4377C9.10808 12.4784 8.98588 12.6132 8.96081 12.7761L8.73833 14.0922C8.73207 14.1329 8.6976 14.1611 8.65686 14.1611H7.33767C7.29694 14.1611 7.26247 14.1329 7.2562 14.0922L7.03686 12.7761C7.00866 12.61 6.88645 12.4784 6.72665 12.4377C6.27856 12.3218 5.84614 12.1432 5.44193 11.9113C5.37612 11.8737 5.30092 11.8549 5.22885 11.8549C5.14425 11.8549 5.05651 11.8799 4.98444 11.9332L3.88773 12.7134C3.87206 12.7228 3.85639 12.7291 3.84072 12.7291C3.82819 12.7291 3.80312 12.726 3.78119 12.704L2.84741 11.7703C2.81921 11.7421 2.81608 11.6982 2.83801 11.6637L3.60885 10.5827C3.70598 10.4448 3.71225 10.2631 3.62765 10.1189C3.38324 9.71159 3.19523 9.26977 3.07616 8.80915C3.03229 8.64934 2.90068 8.52714 2.73774 8.49894L1.41229 8.27333C1.37155 8.26706 1.34335 8.23259 1.34335 8.19186V6.87267C1.34335 6.83193 1.37155 6.79747 1.41229 6.7912L2.71894 6.57186C2.88502 6.54365 3.01976 6.42145 3.06049 6.25851C3.17643 5.79789 3.35504 5.35294 3.59631 4.94245C3.68092 4.79831 3.67152 4.61971 3.57438 4.48497L2.79415 3.38825C2.77221 3.35692 2.77534 3.30992 2.80355 3.28172L3.73732 2.34794C3.75925 2.32601 3.78119 2.32288 3.79686 2.32288C3.81566 2.32288 3.83132 2.32914 3.84386 2.33854L4.9249 3.10938C5.06278 3.20651 5.24452 3.21278 5.38866 3.12818C5.79601 2.88377 6.23783 2.69576 6.69845 2.57669C6.85825 2.53282 6.98046 2.40121 7.00866 2.23827L7.23427 0.912815C7.24054 0.87208 7.275 0.843879 7.31574 0.843879H8.63493C8.67566 0.843879 8.71013 0.87208 8.7164 0.912815L8.93574 2.21947C8.96394 2.38554 9.08615 2.52028 9.24909 2.56102C9.72224 2.68009 10.1735 2.86496 10.5933 3.11251C10.7375 3.19711 10.9161 3.19085 11.054 3.09371L12.135 2.31661C12.1507 2.30721 12.1663 2.30094 12.182 2.30094C12.1945 2.30094 12.2196 2.30407 12.2415 2.32601L13.1753 3.25978C13.2035 3.28798 13.2067 3.33185 13.1847 3.36632L12.4108 4.45363C12.3136 4.58837 12.3074 4.77011 12.392 4.91425C12.6364 5.32474 12.8181 5.76655 12.9372 6.22717C12.9779 6.39011 13.1127 6.51232 13.2756 6.53739L14.5916 6.75986C14.6324 6.76613 14.6606 6.8006 14.6606 6.84133V8.16052H14.6575Z" fill="white"/>
<path d="M7.99883 4.26154C6.21276 4.26154 4.76196 5.71233 4.76196 7.49841C4.76196 9.28448 6.21276 10.7353 7.99883 10.7353C9.78491 10.7353 11.2357 9.28448 11.2357 7.49841C11.2357 5.71233 9.78491 4.26154 7.99883 4.26154ZM7.99883 9.88924C6.67964 9.88924 5.608 8.8176 5.608 7.49841C5.608 6.17922 6.67964 5.10757 7.99883 5.10757C9.31802 5.10757 10.3897 6.17922 10.3897 7.49841C10.3897 8.8176 9.31802 9.88924 7.99883 9.88924Z" fill="white"/>
</g>
<defs>
<clipPath id="clip0">
<rect x="0.497314" width="15" height="15" fill="white"/>
</clipPath>
</defs>
</svg>
