<svg width="10" height="10" viewBox="0 0 10 10" fill="none" xmlns="http://www.w3.org/2000/svg">
<g clip-path="url(#clip0)">
<path d="M8.0001 10.0002H1.66677C1.20673 9.99964 0.834005 9.62692 0.833435 9.16688V3.50021C0.833435 3.22409 1.05731 3.00021 1.33343 3.00021H2.3834L3.3834 3.66688H8.33343C8.79348 3.66745 9.1662 4.04017 9.16677 4.50021V8.83355C9.16603 9.47759 8.64414 9.99948 8.0001 10.0002ZM2.33343 9.66688H8.0001C8.46014 9.66631 8.83286 9.29359 8.83343 8.83355V5.33355H3.0001C2.72398 5.33355 2.5001 5.55742 2.5001 5.83355V9.16688C2.50043 9.34722 2.44191 9.52275 2.33343 9.66688ZM1.33343 3.33355C1.24139 3.33355 1.16677 3.40817 1.16677 3.50021V9.16688C1.16677 9.443 1.39065 9.66688 1.66677 9.66688C1.94289 9.66688 2.16677 9.443 2.16677 9.16688V5.83355C2.16734 5.3735 2.54006 5.00078 3.0001 5.00021H8.83343V4.50021C8.83343 4.22409 8.60956 4.00021 8.33343 4.00021H3.28347L2.28347 3.33355H1.33343Z" fill="#B2E5A1"/>
<path d="M1.83315 8.66689H1.49982V5.33356C1.50039 4.78147 1.94773 4.33413 2.49982 4.33356H7.83315V4.66689H2.49982C2.13165 4.66689 1.83315 4.96539 1.83315 5.33356V8.66689Z" fill="#B2E5A1"/>
<path d="M8.16638 4.33356H8.49972V4.66689H8.16638V4.33356Z" fill="#B2E5A1"/>
<path d="M1.49982 8.99976H1.83315V9.33309H1.49982V8.99976Z" fill="#B2E5A1"/>
<path d="M7.99973 9.33311H7.33307V8.99978H7.99973C8.09178 8.99978 8.1664 8.92515 8.1664 8.83311V8.16644H8.49973V8.83311C8.49973 9.10923 8.27586 9.33311 7.99973 9.33311Z" fill="#B2E5A1"/>
<path d="M5.00022 -8.15392e-05C5.04099 -8.15392e-05 5.08038 0.014811 5.1109 0.0419106L6.6109 1.37524C6.66266 1.42122 6.68064 1.49438 6.65607 1.55908C6.63149 1.62386 6.56948 1.66659 6.50022 1.66659H5.83356V3.16659C5.83356 3.25863 5.75893 3.33325 5.66689 3.33325L4.33356 3.33325C4.24152 3.33325 4.16689 3.25863 4.16689 3.16659V1.66659L3.50022 1.66659C3.43097 1.66659 3.36896 1.62386 3.34438 1.55908C3.3198 1.49438 3.33779 1.42122 3.38955 1.37524L4.88955 0.0419106C4.92006 0.014811 4.95945 -8.15392e-05 5.00022 -8.15392e-05ZM6.06191 1.33325L5.00022 0.389567L3.93854 1.33325H4.33356C4.4256 1.33325 4.50022 1.40788 4.50022 1.49992V2.99992H5.50022V1.49992C5.50022 1.40788 5.57485 1.33325 5.66689 1.33325H6.06191Z" fill="#B2E5A1"/>
<path d="M5.0001 9.16658C4.07961 9.16658 3.33344 8.42041 3.33344 7.49992C3.33344 6.57943 4.07961 5.83325 5.0001 5.83325C5.92059 5.83325 6.66677 6.57943 6.66677 7.49992C6.66579 8.42 5.92019 9.16561 5.0001 9.16658ZM5.0001 6.16659C4.26369 6.16659 3.66677 6.76351 3.66677 7.49992C3.66677 8.23633 4.26369 8.83325 5.0001 8.83325C5.73651 8.83325 6.33343 8.23633 6.33343 7.49992C6.33262 6.76392 5.7361 6.1674 5.0001 6.16659Z" fill="#B2E5A1"/>
<path d="M4.83329 8.40243L4.00842 7.5774L4.2441 7.34173L4.83329 7.93108L5.89392 6.87045L6.1296 7.10613L4.83329 8.40243Z" fill="#B2E5A1"/>
</g>
<defs>
<clipPath id="clip0">
<rect width="10" height="10" fill="white"/>
</clipPath>
</defs>
</svg>
