<svg width="10" height="10" viewBox="0 0 10 10" fill="none" xmlns="http://www.w3.org/2000/svg">
<g clip-path="url(#clip0)">
<path d="M8.00004 10.0003H1.66671C1.20667 9.99977 0.833944 9.62704 0.833374 9.167V3.50034C0.833374 3.22421 1.05725 3.00034 1.33337 3.00034H2.38334L3.38334 3.667H8.33337C8.79342 3.66757 9.16614 4.04029 9.16671 4.50034V8.83367C9.16598 9.47771 8.64408 9.9996 8.00004 10.0003ZM2.33337 9.667H8.00004C8.46008 9.66643 8.83281 9.29371 8.83337 8.83367V5.33367H3.00004C2.72392 5.33367 2.50004 5.55755 2.50004 5.83367V9.167C2.50037 9.34734 2.44185 9.52288 2.33337 9.667ZM1.33337 3.33367C1.24133 3.33367 1.16671 3.40829 1.16671 3.50034V9.167C1.16671 9.44313 1.39058 9.667 1.66671 9.667C1.94283 9.667 2.16671 9.44313 2.16671 9.167V5.83367C2.16728 5.37363 2.54 5.00091 3.00004 5.00034H8.83337V4.50034C8.83337 4.22421 8.6095 4.00034 8.33337 4.00034H3.28341L2.28341 3.33367H1.33337Z" fill="#ED717E"/>
<path d="M1.83303 8.66695H1.49969V5.33362C1.50026 4.78153 1.94761 4.33419 2.49969 4.33362H7.83303V4.66695H2.49969C2.13153 4.66695 1.83303 4.96545 1.83303 5.33362V8.66695Z" fill="#ED717E"/>
<path d="M8.16632 4.33362H8.49966V4.66695H8.16632V4.33362Z" fill="#ED717E"/>
<path d="M1.49969 8.99954H1.83303V9.33288H1.49969V8.99954Z" fill="#ED717E"/>
<path d="M7.99955 9.33305H7.33289V8.99972H7.99955C8.09159 8.99972 8.16622 8.92509 8.16622 8.83305V8.16638H8.49955V8.83305C8.49955 9.10917 8.27567 9.33305 7.99955 9.33305Z" fill="#ED717E"/>
<path d="M5.00002 3.33333C4.95925 3.33333 4.91986 3.31844 4.88934 3.29134L3.38934 1.95801C3.33759 1.91203 3.3196 1.83887 3.34418 1.77417C3.36876 1.70939 3.43077 1.66667 3.50002 1.66667H4.16669V0.166667C4.16669 0.0746256 4.24131 0 4.33335 0H5.66669C5.75873 0 5.83335 0.0746256 5.83335 0.166667V1.66667H6.50002C6.56927 1.66667 6.63129 1.70939 6.65586 1.77417C6.68044 1.83887 6.66246 1.91203 6.6107 1.95801L5.1107 3.29134C5.08018 3.31844 5.04079 3.33333 5.00002 3.33333ZM3.93834 2L5.00002 2.94369L6.06171 2H5.66669C5.57465 2 5.50002 1.92537 5.50002 1.83333V0.333333H4.50002V1.83333C4.50002 1.92537 4.4254 2 4.33335 2H3.93834Z" fill="#ED717E"/>
<path d="M5.00004 9.16656C4.07955 9.16656 3.33337 8.42038 3.33337 7.49989C3.33337 6.5794 4.07955 5.83322 5.00004 5.83322C5.92053 5.83322 6.66671 6.5794 6.66671 7.49989C6.66573 8.41997 5.92013 9.16558 5.00004 9.16656ZM5.00004 6.16655C4.26363 6.16655 3.66671 6.76348 3.66671 7.49989C3.66671 8.2363 4.26363 8.83322 5.00004 8.83322C5.73645 8.83322 6.33337 8.2363 6.33337 7.49989C6.33256 6.76389 5.73604 6.16737 5.00004 6.16655Z" fill="#ED717E"/>
<path d="M4.83317 8.4025L4.0083 7.57746L4.24398 7.34179L4.83317 7.93114L5.8938 6.87051L6.12948 7.10619L4.83317 8.4025Z" fill="#ED717E"/>
</g>
<defs>
<clipPath id="clip0">
<rect width="10" height="10" fill="white"/>
</clipPath>
</defs>
</svg>
